<svg xmlns="http://www.w3.org/2000/svg" xmlns:xlink="http://www.w3.org/1999/xlink" version="1.1" x="0px" y="0px" viewBox="0 0 100 125" enable-background="new 0 0 100 100" xml:space="preserve"><path d="M19.032,21.066c-1.023,0-2.048,0.391-2.828,1.171c-0.781,0.781-1.172,1.805-1.172,2.829v49.867  c0,1.024,0.391,2.048,1.172,2.829c0.78,0.78,1.805,1.171,2.828,1.171h61.936c1.023,0,2.048-0.391,2.828-1.171  c0.781-0.781,1.172-1.805,1.172-2.829V25.066c0-1.024-0.391-2.048-1.172-2.829c-0.78-0.78-1.805-1.171-2.828-1.171H19.032z   M80.733,25.3v34.745h-3.692v-4.012h-4.246v-16.09h-4.246v12.515h-4.246v-9.162h-4.471V39.05h-3.574v-3.353h-4.47v10.727h-3.799  v-7.82v-6.928h-4.693v4.916v4.692h-7.821v7.599h-4.246v-4.693h-3.8v8.269h-3.352v7.587h-4.812V25.3H80.733z"/><text x="0" y="115" fill="#000000" font-size="5px" font-weight="bold" font-family="'Helvetica Neue', Helvetica, Arial-Unicode, Arial, Sans-serif">Created by Fabiano Coelho</text><text x="0" y="120" fill="#000000" font-size="5px" font-weight="bold" font-family="'Helvetica Neue', Helvetica, Arial-Unicode, Arial, Sans-serif">from the Noun Project</text></svg>